<svg width="50" height="54" viewBox="0 0 50 54" fill="none" xmlns="http://www.w3.org/2000/svg">
<circle cx="25" cy="27" r="25" fill="#3B3B3B"/>
<path d="M18.52 34.2C18.0933 34.2 17.6 34.1733 17.04 34.12C16.4933 34.0667 15.9533 34 15.42 33.92C14.8867 33.84 14.42 33.7733 14.02 33.72L14.18 32.16C14.5667 32.2 15.02 32.2533 15.54 32.32C16.0733 32.3733 16.5933 32.42 17.1 32.46C17.6067 32.5 18.04 32.52 18.4 32.52C19.32 32.52 20 32.32 20.44 31.92C20.8933 31.52 21.12 30.8933 21.12 30.04C21.12 29.5733 21.0267 29.2067 20.84 28.94C20.6667 28.66 20.3667 28.44 19.94 28.28C19.5133 28.1067 18.94 27.9533 18.22 27.82C17.2333 27.62 16.42 27.38 15.78 27.1C15.14 26.82 14.6667 26.4267 14.36 25.92C14.0533 25.4 13.9 24.7 13.9 23.82C13.9 22.8867 14.08 22.14 14.44 21.58C14.8133 21.02 15.34 20.6133 16.02 20.36C16.7133 20.1067 17.52 19.98 18.44 19.98C18.8533 19.98 19.32 20.0067 19.84 20.06C20.3733 20.1 20.8933 20.1533 21.4 20.22C21.92 20.2867 22.3667 20.3533 22.74 20.42L22.6 22C22.2133 21.9467 21.76 21.9 21.24 21.86C20.7333 21.8067 20.24 21.76 19.76 21.72C19.28 21.68 18.8933 21.66 18.6 21.66C17.68 21.66 16.9867 21.8267 16.52 22.16C16.0667 22.48 15.84 22.9867 15.84 23.68C15.84 24.2133 15.94 24.62 16.14 24.9C16.34 25.18 16.6733 25.4 17.14 25.56C17.6067 25.72 18.22 25.8933 18.98 26.08C19.7 26.24 20.3133 26.4133 20.82 26.6C21.34 26.7867 21.7667 27.02 22.1 27.3C22.4333 27.58 22.6733 27.9267 22.82 28.34C22.98 28.7533 23.06 29.2733 23.06 29.9C23.06 30.9267 22.8733 31.7533 22.5 32.38C22.14 33.0067 21.62 33.4667 20.94 33.76C20.26 34.0533 19.4533 34.2 18.52 34.2ZM25.478 34V20.22H30.498C31.5246 20.22 32.378 20.38 33.058 20.7C33.7513 21.02 34.298 21.4733 34.698 22.06C35.098 22.6467 35.378 23.3533 35.538 24.18C35.7113 24.9933 35.798 25.9 35.798 26.9C35.798 27.9133 35.718 28.8533 35.558 29.72C35.398 30.5733 35.118 31.3267 34.718 31.98C34.318 32.62 33.778 33.12 33.098 33.48C32.418 33.8267 31.558 34 30.518 34H25.478ZM27.398 32.34H30.478C31.1713 32.34 31.7313 32.1933 32.158 31.9C32.598 31.6067 32.938 31.2067 33.178 30.7C33.418 30.1933 33.5846 29.62 33.678 28.98C33.7713 28.3267 33.818 27.6333 33.818 26.9C33.818 26.18 33.7713 25.52 33.678 24.92C33.5846 24.3067 33.418 23.7733 33.178 23.32C32.938 22.8667 32.598 22.52 32.158 22.28C31.7313 22.0267 31.1713 21.9 30.478 21.9H27.398V32.34Z" fill="white"/>
</svg>
